<?xml version="1.0" standalone="no"?>
<!DOCTYPE svg PUBLIC "-//W3C//DTD SVG 20010904//EN"
 "http://www.w3.org/TR/2001/REC-SVG-20010904/DTD/svg10.dtd">
<svg version="1.0" xmlns="http://www.w3.org/2000/svg"
 width="72.000000pt" height="72.000000pt" viewBox="0 0 72.000000 72.000000"
 preserveAspectRatio="xMidYMid meet">
<metadata>
Created by potrace 1.14, written by Peter Selinger 2001-2017
</metadata>
<g transform="translate(0.000000,72.000000) scale(0.100000,-0.100000)"
fill="#000000" stroke="none">
<path d="M275 613 c-77 -39 -89 -51 -73 -70 8 -10 50 -13 158 -13 147 0 180 7
162 37 -9 13 -147 83 -164 83 -7 -1 -44 -17 -83 -37z"/>
<path d="M46 555 c-8 -21 -8 -328 0 -349 6 -15 41 -16 314 -15 265 0 309 3
314 16 9 23 7 336 -3 351 -5 9 -24 12 -52 10 -37 -2 -45 -7 -47 -26 -2 -12
-17 -32 -33 -44 -27 -21 -29 -26 -29 -95 0 -62 3 -74 20 -83 24 -13 26 -36 4
-44 -20 -8 -328 -8 -348 0 -22 8 -20 31 4 44 17 9 20 21 20 83 0 69 -2 74 -29
95 -16 12 -31 32 -33 44 -3 20 -10 23 -49 26 -36 2 -48 -1 -53 -13z"/>
<path d="M262 403 l3 -78 35 0 35 0 3 78 3 77 -41 0 -41 0 3 -77z"/>
<path d="M382 403 l3 -78 38 -3 37 -3 0 80 0 81 -40 0 -41 0 3 -77z"/>
<path d="M13 143 c-19 -7 -16 -30 7 -53 19 -19 33 -20 338 -20 275 0 321 2
340 16 15 10 22 24 20 37 -3 22 -3 22 -348 24 -190 1 -351 -1 -357 -4z"/>
</g>
</svg>
